<svg width="121" height="12" viewBox="0 0 121 12" fill="none" xmlns="http://www.w3.org/2000/svg">
<path id="Arrow 4" d="M120.161 6.08362L115.161 3.19687V8.97037L120.161 6.08362ZM3.49389 6.58362C3.77003 6.58362 3.99389 6.35976 3.99389 6.08362C3.99389 5.80748 3.77003 5.58362 3.49389 5.58362V6.58362ZM10.1606 5.58362C9.88441 5.58362 9.66055 5.80748 9.66055 6.08362C9.66055 6.35976 9.88441 6.58362 10.1606 6.58362V5.58362ZM16.8272 6.58362C17.1034 6.58362 17.3272 6.35976 17.3272 6.08362C17.3272 5.80748 17.1034 5.58362 16.8272 5.58362V6.58362ZM23.4939 5.58362C23.2177 5.58362 22.9939 5.80748 22.9939 6.08362C22.9939 6.35976 23.2177 6.58362 23.4939 6.58362V5.58362ZM30.1606 6.58362C30.4367 6.58362 30.6606 6.35976 30.6606 6.08362C30.6606 5.80748 30.4367 5.58362 30.1606 5.58362V6.58362ZM36.8272 5.58362C36.5511 5.58362 36.3272 5.80748 36.3272 6.08362C36.3272 6.35976 36.5511 6.58362 36.8272 6.58362V5.58362ZM43.4939 6.58362C43.77 6.58362 43.9939 6.35976 43.9939 6.08362C43.9939 5.80748 43.77 5.58362 43.4939 5.58362V6.58362ZM50.1606 5.58362C49.8844 5.58362 49.6606 5.80748 49.6606 6.08362C49.6606 6.35976 49.8844 6.58362 50.1606 6.58362V5.58362ZM56.8272 6.58362C57.1034 6.58362 57.3272 6.35976 57.3272 6.08362C57.3272 5.80748 57.1034 5.58362 56.8272 5.58362V6.58362ZM63.4939 5.58362C63.2178 5.58362 62.9939 5.80748 62.9939 6.08362C62.9939 6.35976 63.2178 6.58362 63.4939 6.58362V5.58362ZM70.1606 6.58362C70.4367 6.58362 70.6606 6.35976 70.6606 6.08362C70.6606 5.80748 70.4367 5.58362 70.1606 5.58362V6.58362ZM76.8272 5.58362C76.5511 5.58362 76.3272 5.80748 76.3272 6.08362C76.3272 6.35976 76.5511 6.58362 76.8272 6.58362V5.58362ZM83.4939 6.58362C83.77 6.58362 83.9939 6.35976 83.9939 6.08362C83.9939 5.80748 83.77 5.58362 83.4939 5.58362V6.58362ZM90.1606 5.58362C89.8844 5.58362 89.6606 5.80748 89.6606 6.08362C89.6606 6.35976 89.8844 6.58362 90.1606 6.58362V5.58362ZM96.8272 6.58362C97.1034 6.58362 97.3272 6.35976 97.3272 6.08362C97.3272 5.80748 97.1034 5.58362 96.8272 5.58362V6.58362ZM103.494 5.58362C103.218 5.58362 102.994 5.80748 102.994 6.08362C102.994 6.35976 103.218 6.58362 103.494 6.58362V5.58362ZM110.161 6.58362C110.437 6.58362 110.661 6.35976 110.661 6.08362C110.661 5.80748 110.437 5.58362 110.161 5.58362V6.58362ZM116.827 5.58362C116.551 5.58362 116.327 5.80748 116.327 6.08362C116.327 6.35976 116.551 6.58362 116.827 6.58362V5.58362ZM0.160553 6.58362L3.49389 6.58362V5.58362L0.160553 5.58362L0.160553 6.58362ZM10.1606 6.58362L16.8272 6.58362V5.58362L10.1606 5.58362V6.58362ZM23.4939 6.58362L30.1606 6.58362V5.58362L23.4939 5.58362V6.58362ZM36.8272 6.58362L43.4939 6.58362V5.58362L36.8272 5.58362V6.58362ZM50.1606 6.58362L56.8272 6.58362V5.58362L50.1606 5.58362V6.58362ZM63.4939 6.58362L70.1606 6.58362V5.58362L63.4939 5.58362V6.58362ZM76.8272 6.58362L83.4939 6.58362V5.58362L76.8272 5.58362V6.58362ZM90.1606 6.58362L96.8272 6.58362V5.58362L90.1606 5.58362V6.58362ZM103.494 6.58362L110.161 6.58362V5.58362L103.494 5.58362V6.58362ZM120.161 6.08362L110.161 0.310115V11.8571L120.161 6.08362ZM3.49389 7.08362C4.04617 7.08362 4.49389 6.6359 4.49389 6.08362C4.49389 5.53133 4.04617 5.08362 3.49389 5.08362V7.08362ZM10.1606 5.08362C9.60827 5.08362 9.16055 5.53133 9.16055 6.08362C9.16055 6.6359 9.60827 7.08362 10.1606 7.08362V5.08362ZM16.8272 7.08362C17.3795 7.08362 17.8272 6.6359 17.8272 6.08362C17.8272 5.53133 17.3795 5.08362 16.8272 5.08362V7.08362ZM23.4939 5.08362C22.9416 5.08362 22.4939 5.53133 22.4939 6.08362C22.4939 6.6359 22.9416 7.08362 23.4939 7.08362V5.08362ZM30.1606 7.08362C30.7128 7.08362 31.1606 6.6359 31.1606 6.08362C31.1606 5.53133 30.7128 5.08362 30.1606 5.08362V7.08362ZM36.8272 5.08362C36.2749 5.08362 35.8272 5.53133 35.8272 6.08362C35.8272 6.6359 36.2749 7.08362 36.8272 7.08362V5.08362ZM43.4939 7.08362C44.0462 7.08362 44.4939 6.6359 44.4939 6.08362C44.4939 5.53133 44.0462 5.08362 43.4939 5.08362V7.08362ZM50.1606 5.08362C49.6083 5.08362 49.1606 5.53133 49.1606 6.08362C49.1606 6.6359 49.6083 7.08362 50.1606 7.08362V5.08362ZM56.8272 7.08362C57.3795 7.08362 57.8272 6.6359 57.8272 6.08362C57.8272 5.53133 57.3795 5.08362 56.8272 5.08362V7.08362ZM63.4939 5.08362C62.9416 5.08362 62.4939 5.53133 62.4939 6.08362C62.4939 6.6359 62.9416 7.08362 63.4939 7.08362V5.08362ZM70.1606 7.08362C70.7128 7.08362 71.1606 6.6359 71.1606 6.08362C71.1606 5.53133 70.7128 5.08362 70.1606 5.08362V7.08362ZM76.8272 5.08362C76.2749 5.08362 75.8272 5.53133 75.8272 6.08362C75.8272 6.6359 76.2749 7.08362 76.8272 7.08362V5.08362ZM83.4939 7.08362C84.0462 7.08362 84.4939 6.6359 84.4939 6.08362C84.4939 5.53133 84.0462 5.08362 83.4939 5.08362V7.08362ZM90.1606 5.08362C89.6083 5.08362 89.1606 5.53133 89.1606 6.08362C89.1606 6.6359 89.6083 7.08362 90.1606 7.08362V5.08362ZM96.8272 7.08362C97.3795 7.08362 97.8272 6.6359 97.8272 6.08362C97.8272 5.53133 97.3795 5.08362 96.8272 5.08362V7.08362ZM103.494 5.08362C102.942 5.08362 102.494 5.53133 102.494 6.08362C102.494 6.6359 102.942 7.08362 103.494 7.08362V5.08362ZM110.161 7.08362C110.713 7.08362 111.161 6.6359 111.161 6.08362C111.161 5.53133 110.713 5.08362 110.161 5.08362V7.08362ZM116.827 5.08362C116.275 5.08362 115.827 5.53133 115.827 6.08362C115.827 6.6359 116.275 7.08362 116.827 7.08362V5.08362ZM0.160553 7.08362L3.49389 7.08362V5.08362H0.160553L0.160553 7.08362ZM10.1606 7.08362L16.8272 7.08362V5.08362L10.1606 5.08362V7.08362ZM23.4939 7.08362L30.1606 7.08362V5.08362L23.4939 5.08362V7.08362ZM36.8272 7.08362L43.4939 7.08362V5.08362L36.8272 5.08362V7.08362ZM50.1606 7.08362L56.8272 7.08362V5.08362L50.1606 5.08362V7.08362ZM63.4939 7.08362L70.1606 7.08362V5.08362L63.4939 5.08362V7.08362ZM76.8272 7.08362L83.4939 7.08362V5.08362L76.8272 5.08362V7.08362ZM90.1606 7.08362L96.8272 7.08362V5.08362L90.1606 5.08362V7.08362ZM103.494 7.08362L110.161 7.08362V5.08362L103.494 5.08362V7.08362Z" fill="white"/>
</svg>
