<svg width="30" height="94" viewBox="0 0 30 94" fill="none" xmlns="http://www.w3.org/2000/svg">
<path d="M17.2131 2.54199L17.2131 0.541994L13.2131 0.54199L13.2131 2.54199L17.2131 2.54199ZM13.7988 92.9562C14.5799 93.7373 15.8462 93.7373 16.6273 92.9562L29.3552 80.2283C30.1362 79.4473 30.1362 78.1809 29.3552 77.3999C28.5741 76.6188 27.3078 76.6188 26.5268 77.3999L15.213 88.7136L3.89935 77.3998C3.1183 76.6188 1.85198 76.6188 1.07093 77.3998C0.289876 78.1809 0.289875 79.4472 1.07092 80.2283L13.7988 92.9562ZM13.2131 6.99199C13.2131 8.09656 14.1086 8.99199 15.2131 8.99199C16.3177 8.99199 17.2131 8.09656 17.2131 6.99199L13.2131 6.99199ZM17.2131 15.892C17.2131 14.7874 16.3177 13.892 15.2131 13.892C14.1086 13.892 13.2131 14.7874 13.2131 15.892L17.2131 15.892ZM13.2131 24.792C13.2131 25.8966 14.1085 26.792 15.2131 26.792C16.3177 26.792 17.2131 25.8966 17.2131 24.792L13.2131 24.792ZM17.2131 33.692C17.2131 32.5874 16.3177 31.692 15.2131 31.692C14.1085 31.692 13.2131 32.5874 13.2131 33.692L17.2131 33.692ZM13.2131 42.592C13.2131 43.6966 14.1085 44.592 15.2131 44.592C16.3177 44.592 17.2131 43.6966 17.2131 42.592L13.2131 42.592ZM17.2131 51.492C17.2131 50.3874 16.3177 49.492 15.2131 49.492C14.1085 49.492 13.2131 50.3874 13.2131 51.492L17.2131 51.492ZM13.2131 60.392C13.2131 61.4966 14.1085 62.392 15.2131 62.392C16.3176 62.392 17.2131 61.4966 17.2131 60.392L13.2131 60.392ZM17.2131 69.292C17.2131 68.1874 16.3176 67.292 15.2131 67.292C14.1085 67.292 13.2131 68.1874 13.2131 69.292L17.2131 69.292ZM13.2131 78.192C13.2131 79.2966 14.1085 80.192 15.2131 80.192C16.3176 80.192 17.2131 79.2966 17.2131 78.192L13.2131 78.192ZM17.2131 87.092C17.2131 85.9874 16.3176 85.092 15.2131 85.092C14.1085 85.092 13.2131 85.9874 13.2131 87.092L17.2131 87.092ZM13.2131 2.54199L13.2131 6.99199L17.2131 6.99199L17.2131 2.54199L13.2131 2.54199ZM13.2131 15.892L13.2131 24.792L17.2131 24.792L17.2131 15.892L13.2131 15.892ZM13.2131 33.692L13.2131 42.592L17.2131 42.592L17.2131 33.692L13.2131 33.692ZM13.2131 51.492L13.2131 60.392L17.2131 60.392L17.2131 51.492L13.2131 51.492ZM13.2131 69.292L13.2131 78.192L17.2131 78.192L17.2131 69.292L13.2131 69.292ZM13.2131 87.092L13.213 91.542L17.213 91.542L17.2131 87.092L13.2131 87.092Z" fill="white"/>
</svg>
